<svg width="182" height="177" viewBox="0 0 182 177" fill="none" xmlns="http://www.w3.org/2000/svg">
<g filter="url(#filter0_d_20_2)">
<path d="M39 17.5C39 27.165 31.165 35 21.5 35C11.835 35 4 27.165 4 17.5C4 7.83502 11.835 0 21.5 0C31.165 0 39 7.83502 39 17.5Z" fill="#009ED0"/>
<path d="M173.712 72.7774C175.35 72.7774 176.169 72.7774 176.698 73.1689C176.993 73.3864 177.222 73.6804 177.36 74.0191C177.61 74.6287 177.41 75.4226 177.008 77.0104L161.629 137.868C161.29 139.2 160.528 139.316 159.342 140.282C158.156 141.248 156.717 141.864 155.023 142.131C153.287 142.364 153.206 142.231 150.191 141.479L146.449 139.183L126.312 131.112C124.175 130.256 123.107 129.828 121.999 129.711C121.369 129.645 120.733 129.654 120.105 129.738C119.001 129.886 117.945 130.344 115.834 131.261L97.1148 139.391C92.5861 141.431 97.1148 139.391 92.5861 141.431C91.3582 141.964 90.0244 142.231 88.5848 142.231C86.5947 142.231 84.8375 141.731 83.3132 140.732C81.7888 139.732 80.8573 139.467 80.5186 137.868L34.1975 59.8422C33.7092 59.0909 33.465 58.7153 33.1513 58.4077C32.9727 58.2326 32.778 58.0745 32.5699 57.9357C32.2044 57.692 31.7866 57.5303 30.951 57.2068V57.2068C28.9804 55.9293 26.8125 55.0097 24.7235 53.9366C24.2102 53.673 23.9323 53.4509 23.8801 53.2291C23.8156 52.9553 23.8695 52.667 24.0284 52.4349C24.3263 52 25.7512 52 28.6009 52H45.6601C49.498 52 51.4169 52 53.1159 52.6376C54.0782 52.9987 53.979 53.5061 54.7867 54.1417C56.2127 55.264 57.2076 56.9049 59.1972 60.1868L91.5761 114.543C93.9244 118.417 95.0986 120.354 96.8342 121.258C97.8056 121.765 98.8824 122.036 99.9779 122.05C101.935 122.076 103.887 120.927 107.79 118.628L114.055 114.939C115.812 114.02 115.749 114.173 116.977 113.64C118.247 113.107 119.602 112.84 121.042 112.84C122.481 112.84 123.631 113.487 124.859 114.02C126.087 114.553 124.859 114.02 126.886 114.939L135.545 119.142C139.778 121.197 141.894 122.224 143.788 121.903C144.842 121.724 145.829 121.268 146.647 120.58C148.117 119.344 148.704 117.065 149.877 112.509L159.447 75.3298C159.705 74.3257 159.835 73.8237 160.142 73.4683C160.315 73.2683 160.527 73.1045 160.764 72.9867C161.184 72.7774 161.703 72.7774 162.74 72.7774H173.712Z" fill="#F8F8F8"/>
<path d="M97 160.5C97 165.194 93.1944 169 88.5 169C83.8056 169 80 165.194 80 160.5C80 155.806 83.8056 152 88.5 152C93.1944 152 97 155.806 97 160.5Z" fill="#009ED0"/>
<path d="M165 161C165 165.418 161.418 169 157 169H156C151.582 169 148 165.418 148 161C148 156.582 151.582 153 156 153H157C161.418 153 165 156.582 165 161Z" fill="#009ED0"/>
</g>
<defs>
<filter id="filter0_d_20_2" x="0" y="0" width="181.47" height="177" filterUnits="userSpaceOnUse" color-interpolation-filters="sRGB">
<feFlood flood-opacity="0" result="BackgroundImageFix"/>
<feColorMatrix in="SourceAlpha" type="matrix" values="0 0 0 0 0 0 0 0 0 0 0 0 0 0 0 0 0 0 127 0" result="hardAlpha"/>
<feOffset dy="4"/>
<feGaussianBlur stdDeviation="2"/>
<feComposite in2="hardAlpha" operator="out"/>
<feColorMatrix type="matrix" values="0 0 0 0 0 0 0 0 0 0 0 0 0 0 0 0 0 0 0.25 0"/>
<feBlend mode="normal" in2="BackgroundImageFix" result="effect1_dropShadow_20_2"/>
<feBlend mode="normal" in="SourceGraphic" in2="effect1_dropShadow_20_2" result="shape"/>
</filter>
</defs>
</svg>
